<svg width="24" height="24" viewBox="0 0 24 24" fill="none" xmlns="http://www.w3.org/2000/svg">
<path d="M12.0498 2C6.5498 2 2.0498 6.5 2.0498 12C2.0498 17.5 6.5498 22 12.0498 22C17.5498 22 22.0498 17.5 22.0498 12C22.0498 6.5 17.5498 2 12.0498 2ZM12.0498 20C7.6398 20 4.0498 16.41 4.0498 12C4.0498 7.59 7.6398 4 12.0498 4C16.4598 4 20.0498 7.59 20.0498 12C20.0498 16.41 16.4598 20 12.0498 20ZM16.6398 7.58L10.0498 14.17L7.4598 11.59L6.0498 13L10.0498 17L18.0498 9L16.6398 7.58Z" fill="#00FF5D"/>
</svg>
